<?xml version="1.0" encoding="UTF-8" standalone="no"?>
<svg
   xmlns:dc="http://purl.org/dc/elements/1.1/"
   xmlns:cc="http://creativecommons.org/ns#"
   xmlns:rdf="http://www.w3.org/1999/02/22-rdf-syntax-ns#"
   xmlns:svg="http://www.w3.org/2000/svg"
   xmlns="http://www.w3.org/2000/svg"
   xmlns:sodipodi="http://sodipodi.sourceforge.net/DTD/sodipodi-0.dtd"
   xmlns:inkscape="http://www.inkscape.org/namespaces/inkscape"
   width="326.71518mm"
   height="130.3073mm"
   viewBox="0 0 326.71518 130.3073"
   version="1.1"
   id="svg1609"
   inkscape:version="1.0.1 (3bc2e813f5, 2020-09-07)"
   sodipodi:docname="monty-hall.svg">
  <defs
     id="defs1603">
	
</defs>
  <sodipodi:namedview
     id="base"
     pagecolor="#ffffff"
     bordercolor="#666666"
     borderopacity="1.0"
     inkscape:pageopacity="0.0"
     inkscape:pageshadow="2"
     inkscape:zoom="0.5"
     inkscape:cx="-26.015099"
     inkscape:cy="108.53468"
     inkscape:document-units="mm"
     inkscape:current-layer="layer1"
     inkscape:document-rotation="0"
     showgrid="false"
     inkscape:snap-bbox="true"
     inkscape:bbox-paths="true"
     inkscape:window-width="1920"
     inkscape:window-height="1020"
     inkscape:window-x="0"
     inkscape:window-y="0"
     inkscape:window-maximized="1" />
  <metadata
     id="metadata1606">
    <rdf:RDF>
      <cc:Work
         rdf:about="">
        <dc:format>image/svg+xml</dc:format>
        <dc:type
           rdf:resource="http://purl.org/dc/dcmitype/StillImage" />
        <dc:title></dc:title>
      </cc:Work>
    </rdf:RDF>
  </metadata>
  <g
     inkscape:label="Layer 1"
     inkscape:groupmode="layer"
     id="layer1"
     transform="translate(-64.197649,-36.589988)">
    <g
       id="g1701"
       transform="matrix(0.14097868,0,0,0.14097868,64.197582,88.566981)">
</g>
    <g
       id="g1703"
       transform="matrix(0.14097868,0,0,0.14097868,64.197582,88.566981)">
</g>
    <g
       id="g1705"
       transform="matrix(0.14097868,0,0,0.14097868,64.197582,88.566981)">
</g>
    <g
       id="g1707"
       transform="matrix(0.14097868,0,0,0.14097868,64.197582,88.566981)">
</g>
    <g
       id="g1709"
       transform="matrix(0.14097868,0,0,0.14097868,64.197582,88.566981)">
</g>
    <g
       id="g1711"
       transform="matrix(0.14097868,0,0,0.14097868,64.197582,88.566981)">
</g>
    <g
       id="g1713"
       transform="matrix(0.14097868,0,0,0.14097868,64.197582,88.566981)">
</g>
    <g
       id="g1715"
       transform="matrix(0.14097868,0,0,0.14097868,64.197582,88.566981)">
</g>
    <g
       id="g1717"
       transform="matrix(0.14097868,0,0,0.14097868,64.197582,88.566981)">
</g>
    <g
       id="g1719"
       transform="matrix(0.14097868,0,0,0.14097868,64.197582,88.566981)">
</g>
    <g
       id="g1721"
       transform="matrix(0.14097868,0,0,0.14097868,64.197582,88.566981)">
</g>
    <g
       id="g1723"
       transform="matrix(0.14097868,0,0,0.14097868,64.197582,88.566981)">
</g>
    <g
       id="g1725"
       transform="matrix(0.14097868,0,0,0.14097868,64.197582,88.566981)">
</g>
    <g
       id="g1727"
       transform="matrix(0.14097868,0,0,0.14097868,64.197582,88.566981)">
</g>
    <g
       id="g1729"
       transform="matrix(0.14097868,0,0,0.14097868,64.197582,88.566981)">
</g>
    <g
       id="g1615"
       transform="matrix(0.26458333,0,0,0.26458333,51.22168,36.518996)">
</g>
    <g
       id="g1617"
       transform="matrix(0.26458333,0,0,0.26458333,51.22168,36.518996)">
</g>
    <g
       id="g1619"
       transform="matrix(0.26458333,0,0,0.26458333,51.22168,36.518996)">
</g>
    <g
       id="g1621"
       transform="matrix(0.26458333,0,0,0.26458333,51.22168,36.518996)">
</g>
    <g
       id="g1623"
       transform="matrix(0.26458333,0,0,0.26458333,51.22168,36.518996)">
</g>
    <g
       id="g1625"
       transform="matrix(0.26458333,0,0,0.26458333,51.22168,36.518996)">
</g>
    <g
       id="g1627"
       transform="matrix(0.26458333,0,0,0.26458333,51.22168,36.518996)">
</g>
    <g
       id="g1629"
       transform="matrix(0.26458333,0,0,0.26458333,51.22168,36.518996)">
</g>
    <g
       id="g1631"
       transform="matrix(0.26458333,0,0,0.26458333,51.22168,36.518996)">
</g>
    <g
       id="g1633"
       transform="matrix(0.26458333,0,0,0.26458333,51.22168,36.518996)">
</g>
    <g
       id="g1635"
       transform="matrix(0.26458333,0,0,0.26458333,51.22168,36.518996)">
</g>
    <g
       id="g1637"
       transform="matrix(0.26458333,0,0,0.26458333,51.22168,36.518996)">
</g>
    <g
       id="g1639"
       transform="matrix(0.26458333,0,0,0.26458333,51.22168,36.518996)">
</g>
    <g
       id="g1641"
       transform="matrix(0.26458333,0,0,0.26458333,51.22168,36.518996)">
</g>
    <g
       id="g1643"
       transform="matrix(0.26458333,0,0,0.26458333,51.22168,36.518996)">
</g>
    <g
       id="g2660">
      <path
         id="path1800"
         style="fill:#3e3d42;stroke-width:0.999999;fill-opacity:1"
         d="m 390.01021,138.29355 -0.004,-6.8e-4 v 21.72 h -84.94198 v 433.35799 h 31.403 V 191.41587 h 53.53898 v 439.377 l 0.004,-6.8e-4"
         transform="scale(0.26458333)" />
      <g
         id="g2639">
        <path
           style="fill:#e6e7e8;stroke-width:0.140979;fill-opacity:1"
           d="m 67.541455,113.09967 c 0,0 1.312935,2.18827 2.298517,4.54586 0.231628,0.55404 0.935111,0.72308 1.379194,0.31889 1.230744,-1.12008 3.346975,-3.38758 4.413902,-6.52196 z"
           id="path1671" />
        <path
           style="fill:#ebc9a0;stroke-width:0.140979"
           d="m 134.68481,104.92361 c -0.26307,-0.38219 -0.88746,-0.18976 -0.86124,0.27336 0.0633,1.115 -0.20865,2.51647 -1.54908,3.66192 -2.34207,2.00133 -1.29178,4.92326 -1.29178,4.92326 l 1.41359,1.65734 c 0,0 7.15086,-3.45313 2.28851,-10.51588 z"
           id="path1673" />
        <path
           style="fill:#e6e7e8;stroke-width:0.140979;fill-opacity:1"
           d="m 132.17694,133.37748 c -0.87745,-4.67951 1.80354,-8.01859 1.80354,-13.0879 0,-5.26443 -3.14538,-8.67696 -8.04284,-10.30949 -7.89663,-2.63221 -29.539259,0 -36.558587,-4.38697 -1.354664,-0.84672 -2.763464,-3.04049 -4.143505,-5.06438 -0.868005,-1.273037 -2.013316,-2.360265 -3.406608,-3.018072 -3.260696,-1.539487 -6.967026,-0.799349 -9.394679,1.596302 -3.410556,3.36558 -6.428204,7.22403 -7.766797,9.00262 -0.463397,0.61565 -0.592674,1.41458 -0.349063,2.14555 l 0.640043,1.92013 c 0.325802,0.97741 1.247943,1.63197 2.277651,1.5994 2.50928,-0.0797 7.183851,-0.4985 10.376031,-2.37436 2.495746,4.74943 4.117847,16.60743 13.424272,19.83232 l 2.339682,9.6514 v 10.33402 l -2.032348,4.68979 c -0.237408,0.54785 0.16424,1.15955 0.761285,1.15955 h 3.802195 c 0.439712,0 0.803155,-0.34314 0.828249,-0.78215 l 1.393293,-24.29598 c 3.921176,0.38826 12.526806,0.69009 22.038496,-2.45063 1.47421,2.45345 4.55135,6.35109 10.74215,10.41931 l -1.55979,11.25997 -2.03235,4.68979 c -0.23741,0.54785 0.16424,1.15955 0.76129,1.15955 h 3.86944 c 0.41137,0 0.76072,-0.30155 0.82078,-0.70856 l 2.42074,-16.40738 c 0.0653,-0.44253 -0.0513,-0.89042 -0.33285,-1.23793 -0.75085,-0.92708 -2.24227,-3.00299 -2.67972,-5.3359 z"
           id="path1675" />
        <path
           style="fill:#825a5a;stroke-width:0.140979"
           d="m 76.559298,96.185187 3.105478,2.300349 c 0.483275,0.357945 1.144042,0.290698 1.575719,-0.12815 2.987761,-2.898662 6.611054,-4.499475 8.60844,-5.223119 0.385013,-0.139569 0.316638,-0.714903 -0.08966,-0.765514 -7.473702,-0.9306 -13.199974,3.816434 -13.199974,3.816434 z"
           id="path1677" />
        <path
           style="fill:#4b3f4e;stroke-width:0.140979"
           d="m 74.182115,104.53282 c -0.646105,0 -1.175621,-0.52388 -1.175621,-1.16984 0,-0.64597 0.518096,-1.16985 1.164202,-1.16985 h 0.01142 c 0.646105,0 1.169841,0.52388 1.169841,1.16985 0,0.64596 -0.523736,1.16984 -1.169842,1.16984 z"
           id="path1679" />
        <g
           id="g1685"
           transform="matrix(0.14097868,0,0,0.14097868,64.197582,88.566981)">
	<path
   style="fill:#6e4848"
   d="m 453.126,485.892 h 27.447 c 2.918,0 5.396,-2.139 5.822,-5.026 l 2.759,-18.702 -30.329,-10.11 -11.099,25.613 c -1.683,3.886 1.165,8.225 5.4,8.225 z"
   id="path1681" />

	<path
   style="fill:#6e4848"
   d="m 197.956,485.892 h 26.97 c 3.119,0 5.697,-2.434 5.875,-5.548 l 1.083,-18.88 -28.229,-9.41 -11.099,25.613 c -1.684,3.886 1.165,8.225 5.4,8.225 z"
   id="path1683" />

</g>
        <g
           id="g1693"
           transform="matrix(0.14097868,0,0,0.14097868,64.197582,88.566981)"
           style="fill:#dcdedf;fill-opacity:1">
	<path
   style="fill:#dcdedf;fill-opacity:1"
   d="m 397.009,290.624 c -3.567,-6.683 -6.246,-12.345 -8.237,-16.94 -3.395,-7.835 -12.276,-11.632 -20.378,-8.933 -46.36,15.449 -93.909,18.64 -115.104,19.264 -6.47,0.19 -11.659,5.309 -11.987,11.773 l -0.619,12.218 c 27.814,2.754 88.856,4.895 156.325,-17.382 z"
   id="path1687" />

	<path
   style="fill:#dcdedf;fill-opacity:1"
   d="m 134.535,167.966 c 2.247,-19.881 -9.508,-26.451 -16.078,-23.685 -8.285,3.489 -7.952,8.989 -23.304,17.681 17.703,33.689 29.209,117.801 95.222,140.676 -33.193,-23.51 -60.38,-94.513 -55.84,-134.672 z"
   id="path1689" />

	<path
   style="fill:#dcdedf;fill-opacity:1"
   d="M 61.587,174.073 C 36.294,165.554 23.514,139.171 20.812,116.435 13.387,125.486 7.287,133.368 3.334,138.621 0.047,142.988 -0.87,148.654 0.858,153.84 l 4.54,13.62 c 2.311,6.933 8.852,11.577 16.156,11.345 10.015,-0.317 24.902,-1.478 40.033,-4.732 z"
   id="path1691" />

</g>
        <path
           style="fill:#6e4848;stroke-width:0.140979"
           d="m 90.069284,92.647891 c -6.261568,0.5532 -9.764465,3.207688 -11.473267,5.046191 l 1.068618,0.791595 c 0.483275,0.358086 1.144042,0.290557 1.575719,-0.12815 2.987761,-2.898662 6.611054,-4.499475 8.60844,-5.223119 0.222323,-0.08064 0.278151,-0.300284 0.22049,-0.486517 z"
           id="path1695" />
        <path
           style="fill:#dcdedf;stroke-width:0.140979;fill-opacity:1"
           d="m 73.616227,95.063138 c 0.07965,1.069887 0.361892,3.08842 1.352408,5.072832 0.263489,0.52783 0.8931,0.76552 1.436714,0.53615 l 2.87244,-1.212703 c 0.736332,-0.310858 0.926089,-1.291929 0.337362,-1.832441 -1.945928,-1.786482 -4.160421,-2.719338 -5.286559,-3.1114 -0.367672,-0.128149 -0.741266,0.159165 -0.712365,0.547562 z"
           id="path1697" />
        <path
           style="fill:#825a5a;stroke-width:0.140979"
           d="m 65.918086,109.66529 c -0.170584,-0.53121 -0.860393,-0.79385 -1.64353,-0.68742 -0.09911,0.41744 -0.09615,0.85687 0.04399,1.27727 l 0.356817,1.07059 c 0.884641,-0.33524 1.437277,-1.05452 1.242727,-1.66044 z"
           id="path1699" />
      </g>
      <path
         id="path1798"
         style="fill:#3e3d42;stroke-width:0.999999;fill-opacity:1"
         d="m 390.01021,630.79219 208.14621,-37.42133 v -61.235 -356.34299 L 390.01021,138.29355"
         transform="scale(0.26458333)" />
      <path
         id="path1611"
         style="fill:#ffffff;stroke:#ffffff;stroke-width:0.999999"
         d="m 428.29844,401.42185 c -6.997,0 -12.66999,-7.38101 -12.66999,-16.486 0,-9.10398 5.67299,-16.48498 12.66999,-16.48498 6.99701,0 12.67,7.381 12.67,16.48498 0,9.10499 -5.67299,16.486 -12.67,16.486 v 0"
         transform="scale(0.26458333)" />
    </g>
    <g
       id="g2013"
       transform="translate(0,-12.170835)"
       style="stroke:none" />
    <g
       id="g2673"
       transform="translate(2.6845915)">
      <path
         id="path1871"
         style="fill:#3e3d42;fill-opacity:1;stroke-width:0.264583"
         d="m 221.32501,36.590168 -0.001,-1.8e-4 v 5.74675 H 198.84977 V 156.99604 h 8.30871 V 50.645448 h 14.16553 V 166.89728 l 0.001,-1.8e-4" />
      <g
         id="g2590"
         transform="matrix(1.2314273,0,0,1.2314273,-46.839898,-36.455632)">
        <rect
           style="fill:#cccccc;stroke:none;stroke-width:0.264583"
           id="rect2015"
           width="36.689842"
           height="24.733707"
           x="74.797279"
           y="215.47052"
           transform="rotate(-42.372613)" />
        <path
           id="rect1991"
           style="fill:#7bab8b;fill-opacity:1;stroke:none;stroke-width:0.264583"
           d="m 233.67161,119.33654 v 35.54305 H 215.096 a 12.7,12.7 0 0 0 -25.4,0 h -8.46667 a 4.2460333,4.2460333 0 0 1 -4.23333,-4.23333 v -4.23334 -8.46666 h 10.58333 a 2.1166667,2.1166667 0 0 0 2.11667,-2.11667 v -4.23333 a 2.1166667,2.1166667 0 0 0 -2.11667,-2.11667 h -8.29717 a 16.867717,16.867717 0 0 1 14.64717,-8.46667 h 19.05 z"
           transform="translate(9.5833335e-7,-12.170834)" />
        <path
           id="circle1941"
           style="fill:#57565c;stroke:none;stroke-width:2.11667"
           d="m 189.69593,154.87937 a 12.7,12.7 0 0 0 12.7,12.7 12.7,12.7 0 0 0 12.7,-12.7 12.7,12.7 0 0 0 -12.7,-12.7 12.7,12.7 0 0 0 -12.7,12.7 z"
           transform="translate(9.5833335e-7,-12.170834)" />
        <path
           d="m 183.87514,137.94604 h 10.58333 a 2.1166667,2.1166667 0 0 0 2.11667,-2.11667 v -4.23333 a 2.1166667,2.1166667 0 0 0 -2.11667,-2.11667 h -8.29733 a 16.61795,16.61795 0 0 0 -2.286,8.46667 z"
           fill="#e6e7e8"
           id="path1949"
           style="stroke:none;stroke-width:2.11667"
           transform="translate(9.5833335e-7,-12.170834)" />
        <path
           d="m 202.39593,169.69604 a 14.816667,14.816667 0 1 0 -14.81667,-14.81667 14.8336,14.8336 0 0 0 14.81667,14.81667 z m 0,-25.4 a 10.583334,10.583334 0 1 1 -10.58333,10.58333 10.596034,10.596034 0 0 1 10.58333,-10.58333 z"
           fill="#3e3d42"
           id="path1955"
           style="stroke:none;stroke-width:2.11667"
           transform="translate(9.5833335e-7,-12.170834)" />
        <path
           d="m 204.5126,152.7627 h -4.23333 v 4.23334 h 4.23333 z"
           fill="#3e3d42"
           id="path1963"
           style="stroke:none;stroke-width:2.11667"
           transform="translate(9.5833335e-7,-12.170834)" />
        <path
           id="path1937"
           style="fill:#ffffff;stroke:#ffffff;stroke-width:0.264583"
           d="m 231.45543,106.20953 c -1.85129,0 -3.35227,-1.95289 -3.35227,-4.36192 0,-2.408762 1.50098,-4.361652 3.35227,-4.361652 1.8513,0 3.35227,1.95289 3.35227,4.361652 0,2.40903 -1.50097,4.36192 -3.35227,4.36192 v 0" />
      </g>
      <path
         id="path1935"
         style="fill:#3e3d42;fill-opacity:1;stroke-width:0.264583"
         d="m 221.32401,166.89692 55.07201,-9.90106 V 140.7941 46.511683 l -55.07201,-9.921695" />
      <path
         id="path2622"
         style="fill:#ffffff;stroke:#ffffff;stroke-width:0.264583"
         d="m 229.73736,106.20953 c -1.85129,0 -3.35226,-1.95289 -3.35226,-4.36192 0,-2.408762 1.50097,-4.361652 3.35226,-4.361652 1.8513,0 3.35227,1.95289 3.35227,4.361652 0,2.40903 -1.50097,4.36192 -3.35227,4.36192 v 0" />
    </g>
    <g
       id="g2713"
       transform="translate(230.42314)">
      <path
         id="path2675"
         style="fill:#3e3d42;fill-opacity:1;stroke-width:0.999999"
         d="m 390.01021,138.29355 -0.004,-6.8e-4 v 21.72 h -84.94198 v 433.35799 h 31.403 V 191.41587 h 53.53898 v 439.377 l 0.004,-6.8e-4"
         transform="scale(0.26458333)" />
      <g
         id="g2707">
        <path
           style="fill:#e6e7e8;fill-opacity:1;stroke-width:0.140979"
           d="m 67.541455,113.09967 c 0,0 1.312935,2.18827 2.298517,4.54586 0.231628,0.55404 0.935111,0.72308 1.379194,0.31889 1.230744,-1.12008 3.346975,-3.38758 4.413902,-6.52196 z"
           id="path2677" />
        <path
           style="fill:#ebc9a0;stroke-width:0.140979"
           d="m 134.68481,104.92361 c -0.26307,-0.38219 -0.88746,-0.18976 -0.86124,0.27336 0.0633,1.115 -0.20865,2.51647 -1.54908,3.66192 -2.34207,2.00133 -1.29178,4.92326 -1.29178,4.92326 l 1.41359,1.65734 c 0,0 7.15086,-3.45313 2.28851,-10.51588 z"
           id="path2679" />
        <path
           style="fill:#e6e7e8;fill-opacity:1;stroke-width:0.140979"
           d="m 132.17694,133.37748 c -0.87745,-4.67951 1.80354,-8.01859 1.80354,-13.0879 0,-5.26443 -3.14538,-8.67696 -8.04284,-10.30949 -7.89663,-2.63221 -29.539259,0 -36.558587,-4.38697 -1.354664,-0.84672 -2.763464,-3.04049 -4.143505,-5.06438 -0.868005,-1.273037 -2.013316,-2.360265 -3.406608,-3.018072 -3.260696,-1.539487 -6.967026,-0.799349 -9.394679,1.596302 -3.410556,3.36558 -6.428204,7.22403 -7.766797,9.00262 -0.463397,0.61565 -0.592674,1.41458 -0.349063,2.14555 l 0.640043,1.92013 c 0.325802,0.97741 1.247943,1.63197 2.277651,1.5994 2.50928,-0.0797 7.183851,-0.4985 10.376031,-2.37436 2.495746,4.74943 4.117847,16.60743 13.424272,19.83232 l 2.339682,9.6514 v 10.33402 l -2.032348,4.68979 c -0.237408,0.54785 0.16424,1.15955 0.761285,1.15955 h 3.802195 c 0.439712,0 0.803155,-0.34314 0.828249,-0.78215 l 1.393293,-24.29598 c 3.921176,0.38826 12.526806,0.69009 22.038496,-2.45063 1.47421,2.45345 4.55135,6.35109 10.74215,10.41931 l -1.55979,11.25997 -2.03235,4.68979 c -0.23741,0.54785 0.16424,1.15955 0.76129,1.15955 h 3.86944 c 0.41137,0 0.76072,-0.30155 0.82078,-0.70856 l 2.42074,-16.40738 c 0.0653,-0.44253 -0.0513,-0.89042 -0.33285,-1.23793 -0.75085,-0.92708 -2.24227,-3.00299 -2.67972,-5.3359 z"
           id="path2681" />
        <path
           style="fill:#825a5a;stroke-width:0.140979"
           d="m 76.559298,96.185187 3.105478,2.300349 c 0.483275,0.357945 1.144042,0.290698 1.575719,-0.12815 2.987761,-2.898662 6.611054,-4.499475 8.60844,-5.223119 0.385013,-0.139569 0.316638,-0.714903 -0.08966,-0.765514 -7.473702,-0.9306 -13.199974,3.816434 -13.199974,3.816434 z"
           id="path2683" />
        <path
           style="fill:#4b3f4e;stroke-width:0.140979"
           d="m 74.182115,104.53282 c -0.646105,0 -1.175621,-0.52388 -1.175621,-1.16984 0,-0.64597 0.518096,-1.16985 1.164202,-1.16985 h 0.01142 c 0.646105,0 1.169841,0.52388 1.169841,1.16985 0,0.64596 -0.523736,1.16984 -1.169842,1.16984 z"
           id="path2685" />
        <g
           id="g2691"
           transform="matrix(0.14097868,0,0,0.14097868,64.197582,88.566981)">
	<path
   style="fill:#6e4848"
   d="m 453.126,485.892 h 27.447 c 2.918,0 5.396,-2.139 5.822,-5.026 l 2.759,-18.702 -30.329,-10.11 -11.099,25.613 c -1.683,3.886 1.165,8.225 5.4,8.225 z"
   id="path2687" />

	<path
   style="fill:#6e4848"
   d="m 197.956,485.892 h 26.97 c 3.119,0 5.697,-2.434 5.875,-5.548 l 1.083,-18.88 -28.229,-9.41 -11.099,25.613 c -1.684,3.886 1.165,8.225 5.4,8.225 z"
   id="path2689" />

</g>
        <g
           id="g2699"
           transform="matrix(0.14097868,0,0,0.14097868,64.197582,88.566981)"
           style="fill:#dcdedf;fill-opacity:1">
	<path
   style="fill:#dcdedf;fill-opacity:1"
   d="m 397.009,290.624 c -3.567,-6.683 -6.246,-12.345 -8.237,-16.94 -3.395,-7.835 -12.276,-11.632 -20.378,-8.933 -46.36,15.449 -93.909,18.64 -115.104,19.264 -6.47,0.19 -11.659,5.309 -11.987,11.773 l -0.619,12.218 c 27.814,2.754 88.856,4.895 156.325,-17.382 z"
   id="path2693" />

	<path
   style="fill:#dcdedf;fill-opacity:1"
   d="m 134.535,167.966 c 2.247,-19.881 -9.508,-26.451 -16.078,-23.685 -8.285,3.489 -7.952,8.989 -23.304,17.681 17.703,33.689 29.209,117.801 95.222,140.676 -33.193,-23.51 -60.38,-94.513 -55.84,-134.672 z"
   id="path2695" />

	<path
   style="fill:#dcdedf;fill-opacity:1"
   d="M 61.587,174.073 C 36.294,165.554 23.514,139.171 20.812,116.435 13.387,125.486 7.287,133.368 3.334,138.621 0.047,142.988 -0.87,148.654 0.858,153.84 l 4.54,13.62 c 2.311,6.933 8.852,11.577 16.156,11.345 10.015,-0.317 24.902,-1.478 40.033,-4.732 z"
   id="path2697" />

</g>
        <path
           style="fill:#6e4848;stroke-width:0.140979"
           d="m 90.069284,92.647891 c -6.261568,0.5532 -9.764465,3.207688 -11.473267,5.046191 l 1.068618,0.791595 c 0.483275,0.358086 1.144042,0.290557 1.575719,-0.12815 2.987761,-2.898662 6.611054,-4.499475 8.60844,-5.223119 0.222323,-0.08064 0.278151,-0.300284 0.22049,-0.486517 z"
           id="path2701" />
        <path
           style="fill:#dcdedf;fill-opacity:1;stroke-width:0.140979"
           d="m 73.616227,95.063138 c 0.07965,1.069887 0.361892,3.08842 1.352408,5.072832 0.263489,0.52783 0.8931,0.76552 1.436714,0.53615 l 2.87244,-1.212703 c 0.736332,-0.310858 0.926089,-1.291929 0.337362,-1.832441 -1.945928,-1.786482 -4.160421,-2.719338 -5.286559,-3.1114 -0.367672,-0.128149 -0.741266,0.159165 -0.712365,0.547562 z"
           id="path2703" />
        <path
           style="fill:#825a5a;stroke-width:0.140979"
           d="m 65.918086,109.66529 c -0.170584,-0.53121 -0.860393,-0.79385 -1.64353,-0.68742 -0.09911,0.41744 -0.09615,0.85687 0.04399,1.27727 l 0.356817,1.07059 c 0.884641,-0.33524 1.437277,-1.05452 1.242727,-1.66044 z"
           id="path2705" />
      </g>
      <path
         id="path2709"
         style="fill:#3e3d42;fill-opacity:1;stroke-width:0.999999"
         d="m 390.01021,630.79219 208.14621,-37.42133 v -61.235 -356.34299 L 390.01021,138.29355"
         transform="scale(0.26458333)" />
      <path
         id="path2711"
         style="fill:#ffffff;stroke:#ffffff;stroke-width:0.999999"
         d="m 428.29844,401.42185 c -6.997,0 -12.66999,-7.38101 -12.66999,-16.486 0,-9.10398 5.67299,-16.48498 12.66999,-16.48498 6.99701,0 12.67,7.381 12.67,16.48498 0,9.10499 -5.67299,16.486 -12.67,16.486 v 0"
         transform="scale(0.26458333)" />
    </g>
  </g>
</svg>
